<svg xmlns="http://www.w3.org/2000/svg" width="380" height="185" viewBox="0 0 380 185">
<style>
    .t{font:600 14px -apple-system,BlinkMacSystemFont,Segoe UI,Helvetica,Arial,PingFang SC,Microsoft YaHei,sans-serif;fill:#395B64}
    .l{font:400 12px -apple-system,BlinkMacSystemFont,Segoe UI,Helvetica,Arial,PingFang SC,Microsoft YaHei,sans-serif;fill:#395B64}
    .p{font:600 12px -apple-system,BlinkMacSystemFont,Segoe UI,Helvetica,Arial,PingFang SC,Microsoft YaHei,sans-serif;fill:#395B64}
  </style>
<rect x="0.5" y="0.5" width="379" height="184" rx="8" fill="#ffffff" stroke="#e6ebef"/>
<text class="t" x="20" y="28">Most Used Languages</text>
<circle cx="72" cy="108" r="44" fill="none" stroke="#dfe7ee" stroke-width="16"/>
<circle cx="72" cy="108" r="44" fill="none" stroke="#3572A5" stroke-width="16" stroke-dasharray="107.37412920575004 169.08602431015174" stroke-dashoffset="0" transform="rotate(-90 72 108)"/>
<circle cx="72" cy="108" r="44" fill="none" stroke="#DA5B0B" stroke-width="16" stroke-dasharray="88.18137077632004 188.27878273958174" stroke-dashoffset="-107.37412920575004" transform="rotate(-90 72 108)"/>
<circle cx="72" cy="108" r="44" fill="none" stroke="#355570" stroke-width="16" stroke-dasharray="37.58716248899335 238.8729910269084" stroke-dashoffset="-195.55549998207007" transform="rotate(-90 72 108)"/>
<circle cx="72" cy="108" r="44" fill="none" stroke="#e34c26" stroke-width="16" stroke-dasharray="17.31621064949625 259.1439428664055" stroke-dashoffset="-233.14266247106343" transform="rotate(-90 72 108)"/>
<circle cx="72" cy="108" r="44" fill="none" stroke="#f1e05a" stroke-width="16" stroke-dasharray="13.790987566709848 262.6691659491919" stroke-dashoffset="-250.45887312055967" transform="rotate(-90 72 108)"/>
<circle cx="72" cy="108" r="44" fill="none" stroke="#3178c6" stroke-width="16" stroke-dasharray="8.543582657977927 267.91657085792383" stroke-dashoffset="-264.2498606872695" transform="rotate(-90 72 108)"/>
<rect x="140" y="54" width="10" height="10" rx="2" fill="#3572A5"/>
<text class="l" x="156" y="62">Python</text>
<text class="p" x="364" y="62" text-anchor="end">38.84%</text>
<rect x="140" y="74" width="10" height="10" rx="2" fill="#DA5B0B"/>
<text class="l" x="156" y="82">Jupyter Notebook</text>
<text class="p" x="364" y="82" text-anchor="end">31.90%</text>
<rect x="140" y="94" width="10" height="10" rx="2" fill="#355570"/>
<text class="l" x="156" y="102">GDScript</text>
<text class="p" x="364" y="102" text-anchor="end">13.60%</text>
<rect x="140" y="114" width="10" height="10" rx="2" fill="#e34c26"/>
<text class="l" x="156" y="122">HTML</text>
<text class="p" x="364" y="122" text-anchor="end">6.26%</text>
<rect x="140" y="134" width="10" height="10" rx="2" fill="#f1e05a"/>
<text class="l" x="156" y="142">JavaScript</text>
<text class="p" x="364" y="142" text-anchor="end">4.99%</text>
<rect x="140" y="154" width="10" height="10" rx="2" fill="#3178c6"/>
<text class="l" x="156" y="162">TypeScript</text>
<text class="p" x="364" y="162" text-anchor="end">3.09%</text>
</svg>